<svg xmlns="http://www.w3.org/2000/svg" viewBox="0 0 300 181.33"><defs><style>.cls-1{fill:#fff;}</style></defs><g id="Layer_2" data-name="Layer 2"><g id="Layer_1-2" data-name="Layer 1"><path class="cls-1" d="M300,31.33v4.11A145.89,145.89,0,0,1,154.12,181.33h-8.23A145.89,145.89,0,0,1,0,35.44V31.33H76.56c15.51,0,40.72-17.7,47.61-22.76l.06,0A38.37,38.37,0,0,1,148.86,0H150a23.53,23.53,0,0,1,3.68.28,37.72,37.72,0,0,1,19.48,8,.18.18,0,0,1,.08.07,4.12,4.12,0,0,1,.4.33c.15.12.3.24.44.37,4.88,4,28,22.31,44.16,22.31Z"/></g></g></svg>