<svg width="25" height="36" viewBox="0 0 25 36" fill="none" xmlns="http://www.w3.org/2000/svg">
<g clip-path="url(#clip0_2_7556)">
<path d="M5.10618 22.0593C5.2652 22.1154 5.43294 22.1428 5.60155 22.1402L10.7955 21.9769L11.4692 21.1735C11.4977 21.1396 11.5329 21.1119 11.5727 21.0924C11.6125 21.0729 11.6559 21.0619 11.7002 21.0601L17.3808 20.8334C17.4468 20.8307 17.512 20.8487 17.5674 20.8847C17.6227 20.9208 17.6655 20.9732 17.6897 21.0347C17.7139 21.0961 17.7183 21.1636 17.7024 21.2277C17.6865 21.2918 17.651 21.3494 17.6009 21.3924L17.2856 21.6632L23.6978 21.4015C23.894 21.3935 24.0832 21.326 24.2401 21.208C24.3971 21.09 24.5145 20.9271 24.5767 20.7409C24.639 20.5546 24.6431 20.3539 24.5886 20.1652C24.5341 19.9766 24.4235 19.8089 24.2716 19.6846C23.5867 19.1257 22.7942 18.7134 21.9434 18.4733C21.0926 18.2332 20.2015 18.1704 19.3255 18.2889L6.09642 19.9018C6.04021 19.9087 5.9832 19.9004 5.93127 19.8778C5.87935 19.8552 5.83439 19.8192 5.80104 19.7735L3.77546 16.9943C3.47956 16.5874 3.0877 16.26 2.63473 16.0412C2.18176 15.8223 1.68172 15.7188 1.17908 15.7398L0.363541 15.7731L3.41653 20.7229C3.80133 21.3565 4.40097 21.8308 5.10618 22.0593Z" fill="#313EF7"/>
<path d="M7.48076 27.3756L14.7397 21.1395L10.1125 21.324L5.59228 26.7157L7.48076 27.3756Z" fill="#313EF7"/>
<path d="M15.8996 18.408L11.5801 14.8557L10.3509 15.1181L13.1742 18.7403L15.8996 18.408Z" fill="#313EF7"/>
</g>
<defs>
<clipPath id="clip0_2_7556">
<rect width="25" height="35" fill="white" transform="translate(0 0.5)"/>
</clipPath>
</defs>
</svg>
