<svg xmlns="http://www.w3.org/2000/svg" xmlns:xlink="http://www.w3.org/1999/xlink" viewBox="0 0 24.26 12.52"><defs><style>.cls-1{fill:none;}.cls-2{clip-path:url(#clip-path);}.cls-3{fill:#313ef7;}</style><clipPath id="clip-path" transform="translate(-0.36 -14.36)"><rect class="cls-1" width="25" height="35"/></clipPath></defs><g id="Layer_2" data-name="Layer 2"><g id="Layer_1-2" data-name="Layer 1"><g class="cls-2"><path class="cls-3" d="M5.11,21.56a1.36,1.36,0,0,0,.49.08l5.2-.16.67-.81a.39.39,0,0,1,.1-.08.31.31,0,0,1,.13,0l5.68-.23a.41.41,0,0,1,.19.05.35.35,0,0,1,.12.15.34.34,0,0,1,0,.2.27.27,0,0,1-.1.16l-.31.27,6.41-.26a1,1,0,0,0,.54-.19,1,1,0,0,0,.35-1,1.08,1.08,0,0,0-.32-.49A6.57,6.57,0,0,0,21.94,18a6.4,6.4,0,0,0-2.61-.18L6.1,19.4a.32.32,0,0,1-.17,0,.28.28,0,0,1-.13-.11l-2-2.78a3.13,3.13,0,0,0-1.15-.95,3,3,0,0,0-1.45-.3l-.82,0,3.06,4.95A3,3,0,0,0,5.11,21.56Z" transform="translate(-0.36 -14.36)"/><path class="cls-3" d="M7.48,26.88l7.26-6.24-4.63.18-4.52,5.4Z" transform="translate(-0.36 -14.36)"/><path class="cls-3" d="M15.9,17.91l-4.32-3.55-1.23.26,2.82,3.62Z" transform="translate(-0.36 -14.36)"/></g></g></g></svg>