<svg width="41" height="40" viewBox="0 0 41 40" fill="none" xmlns="http://www.w3.org/2000/svg">
<g clip-path="url(#clip0_2_7471)">
<path d="M37.9679 16.6531C37.1693 16.1596 36.2803 16.0591 35.4962 16.1363V15.3125C35.4962 6.8907 28.6045 0 20.1837 0C11.7619 0 4.87122 6.89172 4.87122 15.3125V16.1363C4.08715 16.0591 3.19809 16.1596 2.39958 16.6531C0.929185 17.5619 0.183716 19.4765 0.183716 22.3438C0.183716 25.2158 0.930591 27.1405 2.40364 28.0647C3.13536 28.5238 3.98989 28.6832 4.87122 28.6074V29.4531C4.87122 30.1003 5.3959 30.625 6.04309 30.625H10.7306C11.3778 30.625 11.9025 30.1003 11.9025 29.4531V15.3125C11.9025 14.6653 11.3778 14.1406 10.7306 14.1406H7.26848C7.86286 7.5368 13.4278 2.34375 20.1837 2.34375C26.9397 2.34375 32.5046 7.5368 33.0989 14.1406H29.6368C28.9897 14.1406 28.465 14.6653 28.465 15.3125V29.4531C28.465 30.1003 28.9897 30.625 29.6368 30.625H33.1525V31.7969C33.1525 33.7354 31.5754 35.3125 29.6368 35.3125H25.8415C25.3578 33.9486 24.0552 32.9688 22.5275 32.9688H20.1837C18.2452 32.9688 16.6681 34.5459 16.6681 36.4844C16.6681 38.4229 18.2452 40 20.1837 40H22.5275C24.0552 40 25.3578 39.0202 25.8415 37.6562H29.6368C32.8677 37.6562 35.4962 35.0277 35.4962 31.7969C35.4962 30.3695 35.4962 29.5337 35.4962 28.6073C36.3776 28.6831 37.2322 28.5236 37.9638 28.0646C39.4368 27.1405 40.1837 25.2158 40.1837 22.3438C40.1837 19.4765 39.4382 17.5619 37.9679 16.6531ZM4.87122 26.2485C4.49731 26.3136 4.02997 26.3181 3.64918 26.0792C2.92583 25.6255 2.52747 24.2988 2.52747 22.3438C2.52747 20.4074 2.91692 19.0962 3.62403 18.6516C4.00637 18.4112 4.48809 18.4284 4.87122 18.504V26.2485ZM9.55872 16.4844V28.2812H7.21497V16.4844H9.55872ZM22.5275 37.6562H20.1837C19.5375 37.6562 19.0118 37.1305 19.0118 36.4844C19.0118 35.8382 19.5375 35.3125 20.1837 35.3125H22.5275C23.1736 35.3125 23.6993 35.8382 23.6993 36.4844C23.6993 37.1305 23.1736 37.6562 22.5275 37.6562ZM33.1525 28.2812H30.8087V16.4844H33.1525V28.2812ZM36.7266 26.074C36.3479 26.3158 35.8754 26.3111 35.4962 26.2454V18.5041C35.8793 18.4284 36.361 18.4113 36.7434 18.6517C37.4505 19.0962 37.84 20.4074 37.84 22.3438C37.84 24.2909 37.4445 25.6156 36.7266 26.074Z" fill="#030522"/>
</g>
<defs>
<clipPath id="clip0_2_7471">
<rect width="40" height="40" fill="white" transform="translate(0.183716)"/>
</clipPath>
</defs>
</svg>
