<svg width="41" height="40" viewBox="0 0 41 40" fill="none" xmlns="http://www.w3.org/2000/svg">
<g clip-path="url(#clip0_2_7434)">
<path d="M38.2783 20.5182C38.1173 20.1889 38.1173 19.8113 38.2783 19.4821L39.7701 16.4301C40.6008 14.7308 39.9426 12.7055 38.2719 11.819L35.2711 10.2268C34.9474 10.0551 34.7254 9.74946 34.662 9.38861L34.0752 6.04261C33.7484 4.17965 32.0251 2.92779 30.1527 3.19271L26.7892 3.66848C26.4262 3.71973 26.0672 3.60302 25.8038 3.34825L23.3623 0.986391C22.0029 -0.328758 19.8732 -0.328836 18.5139 0.986391L16.0723 3.34849C15.8089 3.60333 15.4499 3.71981 15.0869 3.66872L11.7234 3.19294C9.85039 2.92786 8.12775 4.17989 7.80095 6.04285L7.21408 9.38869C7.15072 9.74962 6.92877 10.0552 6.6051 10.227L3.60434 11.8191C1.93356 12.7055 1.27544 14.7311 2.10606 16.4304L3.59785 19.4822C3.75879 19.8115 3.75879 20.1892 3.59785 20.5184L2.10598 23.5702C1.27536 25.2695 1.93349 27.2949 3.60426 28.1814L6.60502 29.7736C6.92877 29.9453 7.15072 30.2509 7.21408 30.6118L7.80095 33.9578C8.09845 35.6537 9.55266 36.8431 11.224 36.8429C11.3886 36.8429 11.5556 36.8313 11.7235 36.8076L15.087 36.3318C15.4497 36.2803 15.809 36.3973 16.0724 36.652L18.5139 39.0139C19.1937 39.6716 20.0657 40.0003 20.9381 40.0002C21.8102 40.0002 22.6827 39.6714 23.3623 39.0139L25.8038 36.652C26.0672 36.3973 26.4263 36.2809 26.7892 36.3318L30.1527 36.8076C32.026 37.0726 33.7484 35.8206 34.0752 33.9577L34.6621 30.6118C34.7255 30.2509 34.9474 29.9454 35.2711 29.7736L38.2719 28.1814C39.9426 27.295 40.6008 25.2695 39.7701 23.5702L38.2783 20.5182ZM37.1905 26.1434L34.1898 27.7355C33.2331 28.2433 32.5769 29.1462 32.3898 30.2131L31.8029 33.559C31.6924 34.1893 31.1096 34.6127 30.4758 34.5232L27.1123 34.0474C26.0397 33.8955 24.9783 34.2407 24.1998 34.9938L21.7582 37.3556C21.2984 37.8004 20.5778 37.8004 20.1178 37.3556L17.6764 34.9937C17.0184 34.3572 16.1582 34.0123 15.2603 34.0123C15.0958 34.0123 14.9299 34.0239 14.7638 34.0474L11.4003 34.5231C10.767 34.6127 10.1838 34.1892 10.0732 33.5589L9.48625 30.2129C9.29907 29.1461 8.64298 28.243 7.68619 27.7355L4.68542 26.1433C4.12011 25.8434 3.89746 25.1581 4.17847 24.5832L5.67034 21.5313C6.14596 20.5582 6.14596 19.4421 5.67034 18.4689L4.17847 15.417C3.89746 14.8421 4.12011 14.1569 4.68542 13.8569L7.68619 12.2648C8.6429 11.757 9.29907 10.8541 9.48618 9.7872L10.073 6.44128C10.1837 5.81097 10.7663 5.38754 11.4001 5.47707L14.7636 5.95285C15.8359 6.10464 16.8977 5.75957 17.6762 5.00652L20.1178 2.64466C20.5776 2.19982 21.2981 2.19982 21.7581 2.64466L24.1996 5.00652C24.9781 5.75964 26.0397 6.10464 27.1122 5.95285L30.4757 5.47707C31.109 5.38746 31.6922 5.81097 31.8028 6.44128L32.3896 9.78728C32.5768 10.8541 33.2329 11.7572 34.1897 12.2648L37.1905 13.8569C37.7558 14.1569 37.9784 14.8421 37.6974 15.417L36.2055 18.4689C35.7299 19.4419 35.7299 20.5582 36.2055 21.5312L37.6974 24.583C37.9785 25.1581 37.7559 25.8434 37.1905 26.1434Z" fill="black"/>
<path d="M29.3679 11.5712C28.9175 11.1208 28.187 11.1208 27.7366 11.5712L12.5109 26.7969C12.0605 27.2474 12.0605 27.9778 12.5109 28.4283C12.7362 28.6535 13.0314 28.7661 13.3266 28.7661C13.6217 28.7661 13.917 28.6536 14.1422 28.4283L29.3678 13.2026C29.8184 12.7521 29.8184 12.0218 29.3679 11.5712Z" fill="black"/>
<path d="M16.3247 9.61841C13.9925 9.61841 12.0951 11.5158 12.0951 13.848C12.0951 16.1802 13.9925 18.0776 16.3247 18.0776C18.6569 18.0776 20.5543 16.1802 20.5543 13.848C20.5543 11.5158 18.6569 9.61841 16.3247 9.61841ZM16.3247 15.7705C15.2646 15.7705 14.4022 14.9081 14.4022 13.8479C14.4022 12.7878 15.2646 11.9254 16.3247 11.9254C17.3847 11.9254 18.2472 12.7878 18.2472 13.8479C18.2472 14.9081 17.3847 15.7705 16.3247 15.7705Z" fill="black"/>
<path d="M25.5531 21.9224C23.2209 21.9224 21.3235 23.8198 21.3235 26.1519C21.3235 28.4841 23.2209 30.3815 25.5531 30.3815C27.8852 30.3815 29.7827 28.4841 29.7827 26.1519C29.7827 23.8198 27.8852 21.9224 25.5531 21.9224ZM25.5531 28.0744C24.493 28.0744 23.6305 27.212 23.6305 26.1519C23.6305 25.0919 24.4929 24.2295 25.5531 24.2295C26.6131 24.2295 27.4756 25.0919 27.4756 26.1519C27.4756 27.212 26.6131 28.0744 25.5531 28.0744Z" fill="black"/>
</g>
<defs>
<clipPath id="clip0_2_7434">
<rect width="40" height="40" fill="white" transform="translate(0.938721)"/>
</clipPath>
</defs>
</svg>
