<svg width="41" height="40" viewBox="0 0 41 40" fill="none" xmlns="http://www.w3.org/2000/svg">
<path d="M33.7129 29.2668C34.2649 29.2668 34.7129 28.8188 34.7129 28.2668V19.5468C34.7115 18.4802 33.8462 17.6148 32.7795 17.6135H30.5275V10.8002C30.5222 5.0215 25.8395 0.338829 20.0609 0.333496C14.2822 0.338829 9.59954 5.0215 9.59421 10.8002V17.6068H7.34221C6.27554 17.6082 5.41021 18.4735 5.40887 19.5402V34.7922C5.41154 37.4828 7.59287 39.6642 10.2835 39.6668H29.8382C32.5289 39.6642 34.7102 37.4828 34.7129 34.7922C34.7129 34.2402 34.2649 33.7922 33.7129 33.7922C33.1609 33.7922 32.7129 34.2402 32.7129 34.7922C32.7102 36.3788 31.4249 37.6642 29.8382 37.6668H10.2835C8.69687 37.6642 7.41154 36.3788 7.40887 34.7922L7.34221 19.6068H10.5942C11.1462 19.6068 11.5942 19.1588 11.5942 18.6068V10.8002C11.9835 -0.40117 28.1382 -0.402504 28.5275 10.8002V17.6068H17.3942C16.8422 17.6068 16.3942 18.0548 16.3942 18.6068C16.3942 19.1588 16.8422 19.6068 17.3942 19.6068C19.9502 19.5935 30.3849 19.5562 32.7129 19.5402V28.2668C32.7129 28.8188 33.1609 29.2668 33.7129 29.2668Z" fill="#030522"/>
<path d="M17.8561 28.6359C17.9055 31.5346 22.2175 31.5346 22.2668 28.6359C22.2175 25.7372 17.9055 25.7372 17.8561 28.6359Z" fill="#030522"/>
</svg>
