<svg xmlns="http://www.w3.org/2000/svg" viewBox="0 0 356 70"><defs><style>.cls-1{fill:#030522;}</style></defs><g id="Layer_2" data-name="Layer 2"><g id="Layer_1-2" data-name="Layer 1"><path class="cls-1" d="M4,0H0V70H4Z"/><path class="cls-1" d="M8,0H6V70H8Z"/><path class="cls-1" d="M14,0H12V70h2Z"/><path class="cls-1" d="M26,0H22V70h4Z"/><path class="cls-1" d="M34,0H32V70h2Z"/><path class="cls-1" d="M42,0H36V70h6Z"/><path class="cls-1" d="M46,0H44V70h2Z"/><path class="cls-1" d="M52,0H50V70h2Z"/><path class="cls-1" d="M58,0H54V70h4Z"/><path class="cls-1" d="M68,0H66V70h2Z"/><path class="cls-1" d="M80,0H76V70h4Z"/><path class="cls-1" d="M86,0H84V70h2Z"/><path class="cls-1" d="M90,0H88V70h2Z"/><path class="cls-1" d="M102,0H94V70h8Z"/><path class="cls-1" d="M108,0h-2V70h2Z"/><path class="cls-1" d="M118,0h-8V70h8Z"/><path class="cls-1" d="M126,0h-6V70h6Z"/><path class="cls-1" d="M130,0h-2V70h2Z"/><path class="cls-1" d="M134,0h-2V70h2Z"/><path class="cls-1" d="M146,0h-8V70h8Z"/><path class="cls-1" d="M152,0h-2V70h2Z"/><path class="cls-1" d="M158,0h-4V70h4Z"/><path class="cls-1" d="M164,0h-2V70h2Z"/><path class="cls-1" d="M168,0h-2V70h2Z"/><path class="cls-1" d="M180,0h-4V70h4Z"/><path class="cls-1" d="M186,0h-2V70h2Z"/><path class="cls-1" d="M190,0h-2V70h2Z"/><path class="cls-1" d="M200,0h-2V70h2Z"/><path class="cls-1" d="M206,0h-2V70h2Z"/><path class="cls-1" d="M212,0h-4V70h4Z"/><path class="cls-1" d="M222,0h-2V70h2Z"/><path class="cls-1" d="M230,0h-4V70h4Z"/><path class="cls-1" d="M240,0h-2V70h2Z"/><path class="cls-1" d="M246,0h-4V70h4Z"/><path class="cls-1" d="M256,0h-6V70h6Z"/><path class="cls-1" d="M262,0h-2V70h2Z"/><path class="cls-1" d="M266,0h-2V70h2Z"/><path class="cls-1" d="M276,0h-6V70h6Z"/><path class="cls-1" d="M282,0h-4V70h4Z"/><path class="cls-1" d="M288,0h-2V70h2Z"/><path class="cls-1" d="M298,0h-6V70h6Z"/><path class="cls-1" d="M304,0h-4V70h4Z"/><path class="cls-1" d="M310,0h-2V70h2Z"/><path class="cls-1" d="M318,0h-6V70h6Z"/><path class="cls-1" d="M328,0h-4V70h4Z"/><path class="cls-1" d="M334,0h-4V70h4Z"/><path class="cls-1" d="M346,0h-6V70h6Z"/><path class="cls-1" d="M350,0h-2V70h2Z"/><path class="cls-1" d="M356,0h-4V70h4Z"/></g></g></svg>