<svg width="41" height="40" viewBox="0 0 41 40" fill="none" xmlns="http://www.w3.org/2000/svg">
<g clip-path="url(#clip0_2_7419)">
<path d="M32.5741 34.1517C32.5231 34.1517 32.4716 34.1463 32.4209 34.1362C32.3715 34.1258 32.3223 34.1112 32.2747 34.0916C32.2277 34.0721 32.1826 34.048 32.1404 34.0196C32.0974 33.9909 32.0574 33.9589 32.0214 33.922C31.9857 33.8862 31.9528 33.8463 31.9247 33.8042C31.8957 33.7611 31.8722 33.7157 31.8527 33.669C31.8331 33.622 31.8176 33.5728 31.8075 33.5228C31.7974 33.4721 31.7928 33.4212 31.7928 33.3696C31.7928 33.3189 31.7974 33.2673 31.8075 33.2173C31.8176 33.1673 31.8325 33.1181 31.8521 33.0711C31.8716 33.0235 31.8957 32.9783 31.9238 32.9362C31.9528 32.8932 31.9857 32.8532 32.0214 32.8172C32.0574 32.7815 32.0974 32.7486 32.1404 32.7205C32.1826 32.6924 32.2277 32.668 32.2747 32.6485C32.3223 32.6289 32.3715 32.6143 32.4209 32.6042C32.5225 32.5838 32.6254 32.5838 32.7264 32.6042C32.7764 32.6143 32.8256 32.6289 32.8723 32.6485C32.9199 32.668 32.9653 32.6924 33.0074 32.7205C33.0505 32.7486 33.0901 32.7815 33.1262 32.8172C33.1622 32.8532 33.1951 32.8932 33.2232 32.9362C33.2513 32.9783 33.2754 33.0235 33.2949 33.0711C33.3145 33.1181 33.3294 33.1673 33.3395 33.2173C33.3495 33.2673 33.355 33.3189 33.355 33.3696C33.355 33.4212 33.3495 33.4721 33.3395 33.5228C33.3294 33.5728 33.3145 33.622 33.2949 33.669C33.2754 33.7157 33.2513 33.7611 33.2232 33.8042C33.1951 33.8463 33.1622 33.8862 33.1262 33.922C33.0901 33.9589 33.0505 33.9909 33.0074 34.0196C32.9653 34.0477 32.9199 34.0721 32.8723 34.0916C32.8256 34.1112 32.7764 34.1261 32.7264 34.1362C32.6763 34.1463 32.6248 34.1517 32.5741 34.1517Z" fill="#030522"/>
<path d="M21.678 24.995H19.5085C19.2745 24.995 19.0526 24.89 18.9043 24.7087C18.756 24.5278 18.6965 24.2894 18.7426 24.0599L19.4728 20.4189H16.1428L15.0582 21.3225C14.9178 21.4397 14.7408 21.5035 14.5583 21.5035H12.3885C12.1294 21.5035 11.8871 21.375 11.7418 21.1605C11.5963 20.9456 11.567 20.6731 11.6631 20.4323L12.632 18.0104L11.6631 15.5886C11.567 15.3478 11.5963 15.0753 11.7418 14.8604C11.8871 14.6459 12.1294 14.5171 12.3885 14.5171H14.5583C14.7408 14.5171 14.9178 14.5812 15.0582 14.6984L16.1428 15.602H19.4728L18.7426 11.9609C18.6965 11.7311 18.756 11.4931 18.9043 11.3121C19.0526 11.1309 19.2745 11.0259 19.5085 11.0259H21.678C21.949 11.0259 22.2008 11.1663 22.343 11.397L24.9376 15.602H27.6445C28.9727 15.602 30.053 16.6823 30.053 18.0104C30.053 19.3386 28.9727 20.4189 27.6445 20.4189H24.9376L22.343 24.6239C22.2008 24.8546 21.949 24.995 21.678 24.995ZM20.4622 23.4325H21.2422L23.8369 19.2275C23.9791 18.9968 24.2308 18.8564 24.5018 18.8564H27.6445C28.1111 18.8564 28.4905 18.4771 28.4905 18.0104C28.4905 17.5438 28.1111 17.1645 27.6445 17.1645H24.5018C24.2308 17.1645 23.9794 17.0241 23.8369 16.7934L21.2422 12.5884H20.4622L21.1925 16.2294C21.2386 16.4592 21.1791 16.6973 21.0308 16.8785C20.8824 17.0595 20.6606 17.1645 20.4265 17.1645H15.8602C15.6774 17.1645 15.5004 17.1004 15.36 16.9835L14.2754 16.0796H13.5427L14.1988 17.7202C14.2733 17.9067 14.2733 18.1145 14.1988 18.3007L13.5427 19.9413H14.2754L15.36 19.0377C15.5004 18.9205 15.6774 18.8564 15.8602 18.8564H20.4265C20.6606 18.8564 20.8824 18.9617 21.0308 19.1426C21.1791 19.3236 21.2386 19.562 21.1925 19.7914L20.4622 23.4325Z" fill="#030522"/>
<path d="M29.128 33.7224H12.5292C12.098 33.7224 11.7479 33.3726 11.7479 32.9411V28.1367C11.7479 27.7052 12.098 27.3555 12.5292 27.3555H29.128C29.5595 27.3555 29.9092 27.7052 29.9092 28.1367V32.9411C29.9092 33.3726 29.5595 33.7224 29.128 33.7224ZM13.3104 32.1599H28.3467V28.918H13.3104V32.1599Z" fill="#030522"/>
<path d="M36.4834 1.56342H33.3563V0.78125C33.3563 0.349731 33.0062 0 32.575 0H7.39374C5.70551 0 4.33191 1.37329 4.33191 3.06152V36.9382C4.33191 38.6264 5.7052 40 7.39343 40H36.4834C36.9149 40 37.2647 39.6503 37.2647 39.2188V2.34467C37.2647 1.91315 36.9149 1.56342 36.4834 1.56342ZM31.7935 1.5625V10.9662L29.5919 9.92828C29.381 9.8288 29.1369 9.8288 28.926 9.92798L26.7184 10.9671V1.5625H31.7935ZM35.7022 38.4375H9.86505V6.74316C9.86505 6.31165 9.51532 5.96191 9.0838 5.96191C8.65228 5.96191 8.30255 6.31165 8.30255 6.74316V38.4375H7.39374C6.56702 38.4375 5.89441 37.7649 5.89441 36.9382V3.06152C5.89441 2.23511 6.56702 1.5625 7.39374 1.5625H25.1559V12.1985C25.1559 12.4658 25.2929 12.7145 25.5187 12.858C25.6457 12.9385 25.7913 12.9797 25.9374 12.9797C26.0507 12.9797 26.1642 12.955 26.2701 12.9053L29.2584 11.4984L31.7935 12.6938V29.5807C31.7935 30.0122 32.1435 30.3619 32.5747 30.3619C33.0062 30.3619 33.356 30.0122 33.356 29.5807V3.12592H35.7022V38.4375Z" fill="#030522"/>
</g>
<defs>
<clipPath id="clip0_2_7419">
<rect width="40" height="40" fill="white" transform="translate(0.816284)"/>
</clipPath>
</defs>
</svg>
